<?xml version="1.0" standalone="no"?>
<!DOCTYPE svg PUBLIC "-//W3C//DTD SVG 1.1//EN" "http://www.w3.org/Graphics/SVG/1.1/DTD/svg11.dtd" >
<svg xmlns="http://www.w3.org/2000/svg">
<metadata></metadata>
<defs>
<font id="din_otlight" horiz-adv-x="1052" >
<font-face units-per-em="2048" ascent="1565" descent="-483" />
<missing-glyph horiz-adv-x="522" />
<glyph horiz-adv-x="0" />
<glyph horiz-adv-x="0" />
<glyph horiz-adv-x="682" />
<glyph unicode="&#xd;" horiz-adv-x="522" />
<glyph unicode=" "  horiz-adv-x="522" />
<glyph unicode="&#x09;" horiz-adv-x="522" />
<glyph unicode="&#xa0;" horiz-adv-x="522" />
<glyph unicode="!" horiz-adv-x="622" d="M272 0v137h138v-137h-138zM285 1458h112l-6 -1065h-100z" />
<glyph unicode="&#x22;" horiz-adv-x="835" d="M195 1139v319h129v-319h-129zM512 1139v319h129v-319h-129z" />
<glyph unicode="#" horiz-adv-x="1308" d="M172 492v90h211l51 313h-203v92h215l74 471h107l-76 -471h358l74 471h102l-73 -471h192v-92h-205l-51 -313h197v-90h-211l-78 -492h-104l79 492h-360l-76 -492h-104l78 492h-197zM485 582h359l51 313h-358z" />
<glyph unicode="$" horiz-adv-x="1202" d="M104 180l78 78q88 -88 169 -125t192 -45v604q-185 19 -293 111q-115 100 -115 268q0 173 109 279t299 118v183h92v-183q114 -6 199 -42.5t174 -112.5l-72 -72q-67 60 -135.5 93t-165.5 40v-594q148 -24 211 -45.5t108 -60.5q127 -105 127 -283q0 -177 -118.5 -284 t-327.5 -117v-223h-92v221q-140 6 -242 51.5t-197 140.5zM244 1075q0 -127 75 -190q87 -72 224 -90v579q-141 -10 -220 -90t-79 -209zM635 88q157 11 246.5 88.5t89.5 210.5q0 137 -80 205q-12 10 -23 18t-24 15t-22 11.5t-25.5 9t-24.5 7t-30 6.5t-30.5 5.5t-37 5.5 t-39.5 6v-588z" />
<glyph unicode="%" horiz-adv-x="1695" d="M141 979v219q0 123 75.5 199t195.5 76t194 -76t74 -199v-219q0 -123 -74 -197.5t-194 -74.5q-121 0 -196 75t-75 197zM231 983q0 -199 181 -199q178 0 178 199v211q0 201 -178 201q-181 0 -181 -201v-211zM463 0l680 1458h92l-680 -1458h-92zM1016 258v219q0 123 75 199 t195 76t194 -76t74 -199v-219q0 -123 -74 -197.5t-194 -74.5t-195 75t-75 197zM1106 262q0 -199 180 -199q178 0 178 199v211q0 201 -178 201q-180 0 -180 -201v-211z" />
<glyph unicode="&#x26;" horiz-adv-x="1527" d="M172 403q0 47 9.5 89.5t24 76t41.5 68.5t50 59t64 56t68.5 51.5t76.5 52.5q-38 46 -59 74t-49 72.5t-41 88.5t-13 89q0 122 86.5 206t210.5 84q123 0 210 -84.5t87 -207.5q0 -84 -44.5 -146.5t-123.5 -116.5l-108 -73l417 -506q50 74 68 149.5t18 212.5h109 q0 -285 -127 -444l209 -254h-142l-141 172q-27 -27 -61.5 -53t-91 -58.5t-134 -52.5t-161.5 -20q-201 0 -327 114.5t-126 300.5zM283 410q0 -143 94 -233.5t246 -90.5q98 0 192 35.5t197 126.5l-443 534q-41 -27 -65 -44t-58.5 -43t-54.5 -46.5t-43.5 -49t-35.5 -56 t-20.5 -62t-8.5 -71.5zM455 1184q0 -57 29.5 -113.5t113.5 -155.5q63 40 95 63t69 57t52 68t15 75q0 84 -54 139t-134 55t-133 -53.5t-53 -134.5z" />
<glyph unicode="'" horiz-adv-x="518" d="M195 1139v319h129v-319h-129z" />
<glyph unicode="(" horiz-adv-x="581" d="M199 162v1134q0 117 39 191q22 41 48.5 72.5t86.5 91.5l76 -76l-19 -19l-19.5 -19.5t-16.5 -17t-17 -19t-14 -18t-14 -20t-11 -20.5q-29 -54 -29 -158v-1110q0 -104 29 -158q6 -12 14.5 -25t14 -21t19.5 -23t18 -19l23 -23l22 -22l-76 -76q-61 61 -87 92t-48 72 q-24 47 -31.5 89t-7.5 102z" />
<glyph unicode=")" horiz-adv-x="581" d="M133 -117l19 19l19.5 19.5t16.5 17t17 19t14 18t14 20t11 20.5q28 52 28 158v1110q0 106 -28 158q-6 12 -14.5 25t-14 21t-19.5 23t-18 19l-23 23l-22 22l76 76q60 -60 86.5 -91.5t48.5 -72.5q39 -74 39 -191v-1134q0 -60 -7.5 -102t-31.5 -89q-22 -41 -48 -72t-87 -92z " />
<glyph unicode="*" horiz-adv-x="956" d="M147 975l252 139l-252 139l46 78l245 -149l-6 288h92l-6 -288l246 149l45 -78l-252 -139l252 -139l-45 -78l-246 150l6 -289h-92l6 289l-245 -150z" />
<glyph unicode="+" d="M109 492v96h370v368h96v-368h369v-96h-369v-371h-96v371h-370z" />
<glyph unicode="," horiz-adv-x="528" d="M195 139h139v-278l-139 -140v418z" />
<glyph unicode="-" horiz-adv-x="872" d="M168 492v96h537v-96h-537z" />
<glyph unicode="." horiz-adv-x="540" d="M195 0v152h151v-152h-151z" />
<glyph unicode="/" horiz-adv-x="692" d="M0 -152l584 1762h108l-583 -1762h-109z" />
<glyph unicode="0" d="M143 377v704q0 171 107.5 280t275.5 109t275.5 -109t107.5 -280v-704q0 -171 -107.5 -280t-275.5 -109t-275.5 109t-107.5 280zM248 387q0 -134 73 -220.5t205 -86.5t205.5 86.5t73.5 220.5v684q0 134 -73.5 220.5t-205.5 86.5t-205 -86.5t-73 -220.5v-684z" />
<glyph unicode="1" d="M272 1106v125l265 227h104v-1458h-104v1339z" />
<glyph unicode="2" d="M147 0v92l586 768q82 106 82 227q0 133 -74 212t-206 79q-123 0 -202 -72.5t-79 -218.5h-104q0 167 104.5 275t280.5 108q174 0 279.5 -105.5t105.5 -277.5q0 -82 -23 -145t-78 -135l-547 -715h648v-92h-773z" />
<glyph unicode="3" d="M86 354h104q11 -140 98.5 -208t213.5 -68q134 0 221.5 84t87.5 227q0 311 -317 311h-25v93h25q288 0 288 292q0 138 -79.5 216.5t-202.5 78.5q-127 0 -202 -70.5t-89 -195.5h-105q17 169 125 264t271 95q173 0 280 -106t107 -282q0 -242 -207 -331q235 -79 235 -365 q0 -190 -115 -296.5t-298 -106.5q-178 0 -291 93t-125 275z" />
<glyph unicode="4" d="M88 240v92l537 1126h110l-536 -1126h467v463h104v-463h195v-92h-195v-240h-104v240h-578z" />
<glyph unicode="5" d="M152 322h104q18 -121 83.5 -182.5t190.5 -61.5q127 0 201 74q31 31 50 69.5t26.5 86t9.5 81.5t2 88q0 62 -5 111.5t-22.5 103.5t-46 90.5t-79 60t-119.5 23.5q-101 0 -171 -40t-93 -113h-93v745h701v-92h-608v-516q95 108 276 108q158 0 246 -88q71 -71 95 -169.5 t24 -223.5q0 -130 -21.5 -223.5t-91.5 -163.5q-104 -104 -281 -104q-186 0 -280 98q-86 86 -98 238z" />
<glyph unicode="6" d="M145 397q0 134 82 305l375 756h105l-336 -674q75 35 170 35q174 0 275.5 -115.5t101.5 -291.5q0 -118 -44.5 -213t-133.5 -153t-208 -58q-181 0 -284 113t-103 296zM250 403q0 -148 75.5 -235.5t204.5 -87.5t206 87.5t77 235.5q0 138 -74.5 231t-208.5 93 q-129 0 -204.5 -88t-75.5 -236z" />
<glyph unicode="7" d="M176 1137v321h764v-92l-516 -1366h-107l517 1366h-553v-229h-105z" />
<glyph unicode="8" d="M111 393q0 123 61 215t170 150q-201 110 -201 332q0 162 108.5 271t276.5 109t276.5 -109t108.5 -271q0 -225 -198 -332q229 -122 229 -365q0 -174 -119 -289.5t-297 -115.5q-177 0 -296 115.5t-119 289.5zM215 393q0 -135 89.5 -224t221.5 -89q133 0 222.5 89.5 t89.5 223.5t-90 225t-222 91t-221.5 -91t-89.5 -225zM246 1090q0 -128 78 -208.5t202 -80.5t202.5 80.5t78.5 208.5t-78.5 208t-202.5 80t-202 -80t-78 -208z" />
<glyph unicode="9" d="M135 1047q0 118 44 213t133 152.5t208 57.5q181 0 284 -113t103 -296q0 -134 -82 -305l-374 -756h-105l336 674q-75 -35 -172 -35q-117 0 -203 55t-129 146.5t-43 206.5zM240 1055q0 -138 73.5 -231t206.5 -93q129 0 206 88t77 236t-77 235.5t-206 87.5t-204.5 -87.5 t-75.5 -235.5z" />
<glyph unicode=":" horiz-adv-x="598" d="M252 0v152h151v-152h-151zM252 639v152h151v-152h-151z" />
<glyph unicode=";" horiz-adv-x="598" d="M252 639v152h151v-152h-151zM256 139h139v-278l-139 -140v418z" />
<glyph unicode="&#x3c;" d="M215 489v99l623 330v-113l-521 -266l521 -267v-112z" />
<glyph unicode="=" d="M109 334v96h835v-96h-835zM109 647v96h835v-96h-835z" />
<glyph unicode="&#x3e;" d="M215 160v112l520 267l-520 266v113l623 -330v-99z" />
<glyph unicode="?" horiz-adv-x="999" d="M164 1110q0 151 102.5 255.5t263.5 104.5q157 0 262 -103t105 -257q0 -67 -22 -122t-68 -122l-174 -256q-37 -53 -37 -123v-96h-104v92q0 58 13.5 98.5t45.5 86.5l172 254q26 40 37.5 61t22 55t10.5 72q0 115 -75 191.5t-188 76.5q-117 0 -189.5 -78.5t-72.5 -189.5h-104 zM475 0v137h137v-137h-137z" />
<glyph unicode="@" horiz-adv-x="1427" d="M158 322v716q0 195 112 310q107 110 289 110h307q179 0 289 -110q115 -115 115 -310v-1038h-105v121q-52 -70 -119.5 -102.5t-164.5 -32.5q-182 0 -285 133q-47 65 -67.5 150.5t-20.5 224.5q0 135 18.5 222t61.5 148q44 65 121 101t170 36q182 0 286 -139v182 q0 88 -18.5 142.5t-65.5 101.5q-86 86 -233 86h-270q-146 0 -232 -86q-47 -47 -65.5 -100t-18.5 -144v-722q0 -104 25 -156t102 -109l-72 -71q-94 66 -126.5 134.5t-32.5 201.5zM612 494q0 -69 5 -121.5t22 -111t46 -96t81 -62.5t123 -25q60 0 106 16t75 47.5t49 68.5 t29.5 87.5t13 95.5t3.5 101q0 69 -5 121.5t-21.5 110.5t-45.5 95.5t-81 62.5t-123 25t-123 -25t-81 -62.5t-46 -95.5t-22 -110.5t-5 -121.5z" />
<glyph unicode="A" horiz-adv-x="1232" d="M31 0l536 1458h99l536 -1458h-119l-127 354h-680l-126 -354h-119zM311 453h611l-306 858z" />
<glyph unicode="B" horiz-adv-x="1374" d="M225 0v1458h537q186 0 304 -102.5t118 -278.5q0 -116 -61 -204t-167 -123q119 -41 184.5 -133.5t65.5 -219.5q0 -191 -115.5 -294t-312.5 -103h-553zM336 98h430q151 0 240.5 79.5t89.5 219.5t-89.5 219.5t-240.5 79.5h-430v-598zM336 795h414q92 0 162.5 27.5 t115.5 92.5t45 162q0 143 -90.5 213t-232.5 70h-414v-565z" />
<glyph unicode="C" horiz-adv-x="1318" d="M168 729q0 119 2.5 187t10 137t23.5 111.5t42 84t67 82.5q139 139 355 139q195 0 326.5 -114t168.5 -312h-112q-32 153 -134 240.5t-249 87.5q-165 0 -277 -112q-74 -74 -93 -178t-19 -353t19 -352.5t93 -177.5q113 -113 277 -113q148 0 251.5 88t135.5 240h108 q-37 -197 -169.5 -311.5t-325.5 -114.5q-216 0 -355 139q-41 41 -67 82.5t-42 84t-23.5 111.5t-10 137t-2.5 187z" />
<glyph unicode="D" horiz-adv-x="1388" d="M225 0v1458h490q231 0 364 -133q40 -40 68 -96.5t42 -108.5t21.5 -129.5t9 -127.5t1.5 -134t-1.5 -134t-9 -127.5t-21.5 -129.5t-42 -108.5t-68 -96.5q-133 -133 -364 -133h-490zM336 98h352q205 0 313 113q31 33 53 81.5t32.5 92.5t16 113.5t6.5 111t1 119.5t-1 119.5 t-6.5 111t-16 113.5t-32.5 92.5t-53 81.5q-108 113 -313 113h-352v-1262z" />
<glyph unicode="E" horiz-adv-x="1224" d="M225 0v1458h885v-98h-774v-576h659v-98h-659v-588h774v-98h-885z" />
<glyph unicode="F" horiz-adv-x="1179" d="M225 0v1458h885v-98h-774v-600h659v-98h-659v-662h-111z" />
<glyph unicode="G" horiz-adv-x="1333" d="M168 729q0 119 2.5 187t10 137t23.5 111.5t42 84t67 82.5q139 139 355 139q191 0 328 -117t169 -309h-110q-32 152 -135.5 240t-251.5 88q-165 0 -277 -112q-74 -74 -93 -178t-19 -353t19 -352.5t93 -177.5q113 -113 277 -113q87 0 167 36.5t136 104.5q47 60 67.5 127.5 t20.5 161.5v131h-391v98h501v-237q0 -117 -27 -199t-91 -153q-71 -79 -172 -123.5t-211 -44.5q-216 0 -355 139q-41 41 -67 82.5t-42 84t-23.5 111.5t-10 137t-2.5 187z" />
<glyph unicode="H" horiz-adv-x="1431" d="M225 0v1458h111v-674h760v674h110v-1458h-110v686h-760v-686h-111z" />
<glyph unicode="I" horiz-adv-x="561" d="M225 0v1458h111v-1458h-111z" />
<glyph unicode="J" horiz-adv-x="1019" d="M61 113l76 75q50 -50 103 -76t141 -26q158 0 241 94.5t83 272.5v1005h110v-1028q0 -200 -118.5 -321t-315.5 -121q-195 0 -320 125z" />
<glyph unicode="K" horiz-adv-x="1320" d="M225 0v1458h111v-911l739 911h133l-450 -557l526 -901h-131l-469 817l-348 -422v-395h-111z" />
<glyph unicode="L" horiz-adv-x="1171" d="M225 0v1458h111v-1360h774v-98h-885z" />
<glyph unicode="M" horiz-adv-x="1675" d="M225 0v1458h111l508 -1124l495 1124h111v-1458h-111v1202l-442 -997h-111l-450 997v-1202h-111z" />
<glyph unicode="N" horiz-adv-x="1513" d="M225 0v1458h111l842 -1263v1263h110v-1458h-110l-842 1268v-1268h-111z" />
<glyph unicode="O" horiz-adv-x="1335" d="M168 729q0 119 2.5 187t10 137t23.5 111.5t42 84t67 82.5q139 139 355 139q215 0 354 -139q41 -41 67 -82.5t42 -84t23.5 -111.5t10.5 -137t2.5 -187t-3 -187t-10 -137t-23.5 -111.5t-42 -84t-67 -82.5q-139 -139 -354 -139q-216 0 -355 139q-41 41 -67 82.5t-42 84 t-23.5 111.5t-10 137t-2.5 187zM279 729q0 -249 19 -352.5t93 -177.5q113 -113 277 -113q163 0 276 113q74 74 93.5 178t19.5 352t-19.5 352.5t-93.5 178.5q-112 112 -276 112q-165 0 -277 -112q-74 -74 -93 -178t-19 -353z" />
<glyph unicode="P" horiz-adv-x="1292" d="M225 0v1458h535q194 0 317 -112.5t123 -307.5t-123 -307.5t-317 -112.5h-424v-618h-111zM336 717h412q158 0 250 81t92 240t-92 240.5t-250 81.5h-412v-643z" />
<glyph unicode="Q" horiz-adv-x="1333" d="M168 729q0 119 2.5 187t10 137t23.5 111.5t42 84t67 82.5q139 139 355 139q215 0 354 -139q41 -41 67 -82.5t42 -84t23.5 -111.5t10 -137t2.5 -187q0 -255 -18 -364t-86 -193l172 -172l-74 -74l-172 170q-130 -108 -321 -108q-216 0 -355 139q-41 41 -67 82.5t-42 84 t-23.5 111.5t-10 137t-2.5 187zM279 729q0 -249 19 -352.5t93 -177.5q113 -113 277 -113q142 0 247 86l-204 205l73 74l201 -203q46 67 59 166.5t13 314.5q0 248 -19.5 352.5t-93.5 178.5q-112 112 -276 112q-165 0 -277 -112q-74 -74 -93 -178t-19 -353z" />
<glyph unicode="R" horiz-adv-x="1345" d="M225 0v1458h555q185 0 301.5 -103t116.5 -288q0 -162 -90 -264t-246 -129l352 -674h-129l-348 672h-401v-672h-111zM336 770h430q147 0 234 74t87 221t-87 221t-234 74h-430v-590z" />
<glyph unicode="S" horiz-adv-x="1202" d="M104 180l78 78q97 -97 189 -134.5t225 -37.5q174 0 274.5 79.5t100.5 221.5q0 137 -80 205q-38 33 -80 48.5t-131 29.5l-170 26q-167 24 -260 105q-115 95 -115 270q0 184 121.5 291.5t331.5 107.5q132 0 228 -36.5t192 -120.5l-72 -72q-71 67 -152 101t-202 34 q-159 0 -248.5 -80.5t-89.5 -220.5q0 -130 73 -192q77 -65 209 -84l170 -27q100 -15 154.5 -36t105.5 -64q125 -109 125 -281q0 -185 -131.5 -294t-359.5 -109q-159 0 -272 45.5t-214 146.5z" />
<glyph unicode="T" horiz-adv-x="1103" d="M61 1360v98h981v-98h-436v-1360h-110v1360h-435z" />
<glyph unicode="U" horiz-adv-x="1409" d="M205 473v985h110v-971q0 -182 106.5 -291.5t283.5 -109.5t283 109.5t106 291.5v971h110v-985q0 -214 -139.5 -349.5t-359.5 -135.5t-360 135.5t-140 349.5z" />
<glyph unicode="V" horiz-adv-x="1093" d="M20 1458h117l410 -1263l409 1263h117l-479 -1458h-94z" />
<glyph unicode="W" horiz-adv-x="1724" d="M41 1458h117l307 -1268l340 1268h115l340 -1268l307 1268h116l-364 -1458h-113l-344 1270l-344 -1270h-112z" />
<glyph unicode="X" horiz-adv-x="1089" d="M37 0l446 748l-417 710h129l348 -612l350 612h127l-418 -710l451 -748h-129l-381 649l-381 -649h-125z" />
<glyph unicode="Y" horiz-adv-x="1011" d="M20 1458h119l371 -737l362 737h119l-430 -854v-604h-110v604z" />
<glyph unicode="Z" horiz-adv-x="1144" d="M129 0v117l768 1243h-737v98h856v-98l-774 -1262h774v-98h-887z" />
<glyph unicode="[" horiz-adv-x="593" d="M199 -152v1762h303v-92h-199v-1577h199v-93h-303z" />
<glyph unicode="\" horiz-adv-x="692" d="M0 1610h109l583 -1762h-108z" />
<glyph unicode="]" horiz-adv-x="600" d="M92 -66h205v1590h-205v86h309v-1762h-309v86z" />
<glyph unicode="^" d="M156 864l323 606h94l324 -606h-104l-267 496l-266 -496h-104z" />
<glyph unicode="_" d="M0 -250h1053v-78h-1053v78z" />
<glyph unicode="`" horiz-adv-x="1024" d="M272 1509h138l198 -301h-119z" />
<glyph unicode="a" horiz-adv-x="1073" d="M115 270q0 135 91 210t253 75h319v111q0 122 -65 181.5t-213 59.5q-103 0 -164 -28.5t-109 -96.5l-75 66q61 85 141.5 118t206.5 33q383 0 383 -323v-676h-105v98q-62 -62 -128.5 -86t-172.5 -24q-111 0 -177.5 20.5t-113.5 69.5q-71 71 -71 192zM219 272 q0 -99 62 -145.5t196 -46.5q81 0 139 15t107 61q55 52 55 188v127h-307q-252 0 -252 -199z" />
<glyph unicode="b" horiz-adv-x="1105" d="M199 0v1458h104v-598q62 81 130.5 110t162.5 29q76 0 139.5 -23.5t102.5 -62.5q127 -127 127 -419q0 -293 -127 -420q-39 -39 -102.5 -62.5t-139.5 -23.5q-94 0 -162.5 29t-130.5 110v-127h-104zM303 494q0 -69 5.5 -123t23 -110.5t47.5 -94.5t81.5 -62t121.5 -24 t121.5 24t81 61.5t47 95t23 111t5.5 122.5t-5.5 122.5t-23 110.5t-47 94.5t-81 61.5t-121.5 24t-121.5 -24t-81.5 -61.5t-47.5 -94.5t-23 -110.5t-5.5 -122.5z" />
<glyph unicode="c" horiz-adv-x="1009" d="M141 494q0 235 116 370t318 135q104 0 177 -32.5t149 -118.5l-72 -66q-63 70 -119 97.5t-135 27.5q-174 0 -262 -131q-37 -54 -52 -118t-15 -164t15 -164.5t52 -118.5q88 -131 262 -131q78 0 134.5 28t119.5 97l72 -66q-76 -86 -149 -118.5t-177 -32.5q-202 0 -318 135.5 t-116 370.5z" />
<glyph unicode="d" horiz-adv-x="1105" d="M141 494q0 292 127 419q39 39 102.5 62.5t139.5 23.5q94 0 162.5 -29t130.5 -110v598h104v-1458h-104v127q-62 -81 -130.5 -110t-162.5 -29q-76 0 -139.5 23.5t-102.5 62.5q-127 127 -127 420zM246 494q0 -69 5.5 -122.5t23 -111t47 -95t81 -61.5t121.5 -24t121.5 24 t81.5 62t47.5 94.5t23 110.5t5.5 123t-5.5 122.5t-23 110.5t-47.5 94.5t-81.5 61.5t-121.5 24t-121.5 -24t-81 -61.5t-47 -94.5t-23 -110.5t-5.5 -122.5z" />
<glyph unicode="e" horiz-adv-x="1071" d="M141 494q0 239 105 372t291 133t290.5 -127t104.5 -354v-47h-686q0 -190 81.5 -289.5t239.5 -99.5q86 0 147.5 27.5t125.5 91.5l78 -62q-79 -79 -159 -115t-198 -36q-204 0 -312 129.5t-108 376.5zM246 555h581q-4 60 -6 80.5t-8.5 48.5t-19.5 57q-32 78 -100.5 122 t-155.5 44q-85 0 -152.5 -44.5t-103.5 -121.5q-19 -41 -24.5 -74t-10.5 -112z" />
<glyph unicode="f" horiz-adv-x="622" d="M94 909v78h135v213q0 116 62 187t176 71h90v-92h-72q-151 0 -151 -164v-215h223v-78h-223v-909h-105v909h-135z" />
<glyph unicode="g" horiz-adv-x="1105" d="M141 494q0 292 127 419q39 39 102.5 62.5t139.5 23.5q94 0 162.5 -29t130.5 -110v127h104v-1042q0 -190 -107.5 -309t-295.5 -119q-106 0 -176 29.5t-150 101.5l70 69q65 -60 116.5 -84t139.5 -24q149 0 224 93.5t75 248.5v176q-62 -81 -130.5 -110t-162.5 -29 q-76 0 -139.5 23.5t-102.5 62.5q-127 127 -127 420zM246 494q0 -69 5.5 -122.5t23 -111t47 -95t81 -61.5t121.5 -24t121.5 24t81.5 62t47.5 94.5t23 110.5t5.5 123t-5.5 122.5t-23 110.5t-47.5 94.5t-81.5 61.5t-121.5 24t-121.5 -24t-81 -61.5t-47 -94.5t-23 -110.5 t-5.5 -122.5z" />
<glyph unicode="h" horiz-adv-x="1144" d="M199 0v1458h104v-588q111 129 291 129q170 0 267 -98t97 -270v-631h-104v612q0 143 -69.5 219t-202.5 76q-134 0 -206.5 -76.5t-72.5 -218.5v-612h-104z" />
<glyph unicode="i" horiz-adv-x="501" d="M186 1329v129h129v-129h-129zM199 0v987h104v-987h-104z" />
<glyph unicode="j" horiz-adv-x="501" d="M-25 -379h72q85 0 118.5 39t33.5 127v1200h104v-1202q0 -121 -59.5 -188.5t-177.5 -67.5h-91v92zM186 1329v129h129v-129h-129z" />
<glyph unicode="k" horiz-adv-x="1079" d="M199 0v1458h104v-1028l490 557h133l-326 -369l397 -618h-129l-340 543l-225 -260v-283h-104z" />
<glyph unicode="l" horiz-adv-x="587" d="M195 256v1202h104v-1200q0 -88 33.5 -127t118.5 -39h71v-92h-90q-118 0 -177.5 67.5t-59.5 188.5z" />
<glyph unicode="m" horiz-adv-x="1798" d="M199 0v987h104v-117q111 129 293 129q110 0 191.5 -46t125.5 -134q114 180 336 180q160 0 260 -94q105 -102 105 -274v-631h-105v612q0 143 -69.5 219t-202.5 76q-129 0 -204 -74t-75 -202v-631h-104v612q0 143 -69.5 219t-202.5 76t-206 -77t-73 -218v-612h-104z" />
<glyph unicode="n" horiz-adv-x="1144" d="M199 0v987h104v-117q111 129 291 129q164 0 262 -94q102 -99 102 -274v-631h-104v612q0 143 -69.5 219t-202.5 76t-206 -77t-73 -218v-612h-104z" />
<glyph unicode="o" horiz-adv-x="1077" d="M141 494q0 274 123 397q108 108 275 108q166 0 274 -108q123 -123 123 -397q0 -275 -123 -398q-108 -108 -274 -108q-167 0 -275 108q-123 123 -123 398zM246 494q0 -112 16.5 -193.5t71.5 -136.5q84 -84 205 -84q120 0 204 84q55 55 71.5 136.5t16.5 193.5t-16.5 193 t-71.5 136q-84 84 -204 84q-121 0 -205 -84q-55 -55 -71.5 -136t-16.5 -193z" />
<glyph unicode="p" horiz-adv-x="1105" d="M199 -471v1458h104v-127q62 81 130.5 110t162.5 29q76 0 139.5 -23.5t102.5 -62.5q127 -127 127 -419q0 -293 -127 -420q-39 -39 -102.5 -62.5t-139.5 -23.5q-94 0 -162.5 29t-130.5 110v-598h-104zM303 494q0 -69 5.5 -123t23 -110.5t47.5 -94.5t81.5 -62t121.5 -24 t121.5 24t81 61.5t47 95t23 111t5.5 122.5t-5.5 122.5t-23 110.5t-47 94.5t-81 61.5t-121.5 24t-121.5 -24t-81.5 -61.5t-47.5 -94.5t-23 -110.5t-5.5 -122.5z" />
<glyph unicode="q" horiz-adv-x="1105" d="M141 494q0 292 127 419q39 39 102.5 62.5t139.5 23.5q94 0 162.5 -29t130.5 -110v127h104v-1458h-104v598q-62 -81 -130.5 -110t-162.5 -29q-76 0 -139.5 23.5t-102.5 62.5q-127 127 -127 420zM246 494q0 -69 5.5 -122.5t23 -111t47 -95t81 -61.5t121.5 -24t121.5 24 t81.5 62t47.5 94.5t23 110.5t5.5 123t-5.5 122.5t-23 110.5t-47.5 94.5t-81.5 61.5t-121.5 24t-121.5 -24t-81 -61.5t-47 -94.5t-23 -110.5t-5.5 -122.5z" />
<glyph unicode="r" horiz-adv-x="837" d="M199 0v987h104v-131q42 67 120.5 105t168.5 38q75 0 130 -21t107 -73l-75 -76q-44 44 -84.5 61t-102.5 17q-122 0 -193 -87t-71 -212v-608h-104z" />
<glyph unicode="s" horiz-adv-x="1011" d="M102 129l72 72q115 -121 324 -121q297 0 297 201q0 78 -45 117t-144 48l-164 15q-297 24 -297 258q0 129 96.5 204.5t258.5 75.5q207 0 346 -104l-70 -70q-116 84 -276 84q-123 0 -187.5 -49t-64.5 -141q0 -77 48 -116t153 -50l159 -14q67 -7 115 -20.5t90 -41.5t63 -77 t21 -119q0 -135 -106 -214t-289 -79q-253 0 -400 141z" />
<glyph unicode="t" horiz-adv-x="665" d="M88 909v78h135v316h105v-316h223v-78h-223v-653q0 -164 151 -164h72v-92h-90q-114 0 -176 71t-62 187v651h-135z" />
<glyph unicode="u" horiz-adv-x="1144" d="M186 356v631h105v-612q0 -143 69.5 -219t202.5 -76t206 77t73 218v612h104v-987h-104v117q-111 -129 -291 -129q-164 0 -262 94q-103 100 -103 274z" />
<glyph unicode="v" horiz-adv-x="880" d="M29 987h114l297 -864l297 864h115l-360 -987h-103z" />
<glyph unicode="w" horiz-adv-x="1458" d="M29 987h114l252 -864l283 864h102l283 -864l252 864h115l-316 -987h-106l-279 823l-278 -823h-107z" />
<glyph unicode="x" horiz-adv-x="942" d="M82 0l334 504l-320 483h127l250 -397l246 397h127l-320 -483l334 -504h-127l-260 416l-264 -416h-127z" />
<glyph unicode="y" horiz-adv-x="880" d="M29 987h114l297 -864l297 864h115l-459 -1255q-28 -82 -67 -115q-66 -63 -187 -63h-49v92h39q56 0 89.5 14t52.5 41t38 80l80 219z" />
<glyph unicode="z" horiz-adv-x="925" d="M111 0v98l594 797h-562v92h672v-98l-596 -797h596v-92h-704z" />
<glyph unicode="{" horiz-adv-x="647" d="M102 684v90h37q49 0 88 39q37 37 37 123v424q0 83 11.5 123.5t41.5 70.5t76.5 43t122.5 13h29v-92h-27q-57 0 -80.5 -5t-40.5 -22t-22.5 -45.5t-5.5 -87.5v-424q0 -79 -29 -125.5t-96 -79.5q67 -33 96 -79.5t29 -125.5v-424q0 -59 5.5 -87.5t22.5 -45.5t40 -21.5t81 -4.5 h27v-93h-29q-76 0 -122.5 13t-76.5 43t-41.5 70.5t-11.5 123.5v424q0 86 -37 123q-39 39 -88 39h-37z" />
<glyph unicode="|" horiz-adv-x="649" d="M272 -152v1762h105v-1762h-105z" />
<glyph unicode="}" horiz-adv-x="647" d="M102 -59h27q58 0 81 4.5t40 21.5t23 46t6 87v424q0 79 28.5 125.5t95.5 79.5q-67 33 -95.5 79.5t-28.5 125.5v424q0 58 -6 87t-23 46t-40.5 22t-80.5 5h-27v92h29q76 0 122.5 -13t76.5 -43t41.5 -70.5t11.5 -123.5v-424q0 -86 37 -123q39 -39 88 -39h37v-90h-37 q-49 0 -88 -39q-37 -37 -37 -123v-424q0 -83 -11.5 -123.5t-41.5 -70.5t-76.5 -43t-122.5 -13h-29v93z" />
<glyph unicode="~" d="M109 522q80 80 126.5 103.5t110.5 23.5q14 0 28 -1.5t31 -6t27.5 -7.5t31.5 -11t28.5 -11t32 -13.5t30.5 -12.5q3 -1 20 -8.5t21 -9.5t18.5 -7.5t20 -7.5t17.5 -5.5t20 -5t18.5 -2.5t20.5 -1q47 0 79 16.5t91 75.5l63 -64q-80 -80 -126.5 -103.5t-110.5 -23.5 q-16 0 -35 3t-32 6t-36 11.5t-33 12.5t-38 16l-35 15q-3 1 -20 8.5t-21 9.5t-18.5 7.5t-20 7.5t-17.5 5.5t-20 5t-18.5 2.5t-20.5 1q-46 0 -78.5 -16.5t-91.5 -75.5z" />
<glyph unicode="&#xa1;" horiz-adv-x="622" d="M213 850v137h137v-137h-137zM225 -471l6 1065h101l6 -1065h-113z" />
<glyph unicode="&#xa2;" horiz-adv-x="1019" d="M141 750q0 216 97.5 347t271.5 154v207h88v-203q96 -5 163 -37t140 -114l-72 -66q-60 66 -111 93t-120 32v-827q69 5 120 32t111 93l72 -66q-73 -82 -140 -114t-163 -37v-244h-88v248q-174 23 -271.5 154.5t-97.5 347.5zM246 750q0 -100 15 -164.5t52 -118.5 q72 -104 197 -125v815q-125 -21 -197 -125q-37 -54 -52 -118t-15 -164z" />
<glyph unicode="&#xa3;" horiz-adv-x="1099" d="M102 700v78h131v250q0 200 118.5 321t316.5 121q195 0 319 -124l-76 -76q-50 50 -102.5 76t-140.5 26q-158 0 -241 -94.5t-83 -271.5v-228h324v-78h-324v-602h643v-98h-754v700h-131z" />
<glyph unicode="&#xa4;" horiz-adv-x="1345" d="M174 111l152 151q-99 119 -99 281q0 163 99 282l-152 150l66 65l151 -149q116 96 281 96q164 0 280 -96l154 149l65 -65l-151 -150q96 -116 96 -282q0 -165 -96 -281l151 -151l-65 -66l-154 152q-119 -99 -280 -99q-162 0 -281 99l-151 -152zM326 543 q0 -145 100.5 -245.5t245.5 -100.5t245.5 100.5t100.5 245.5t-100.5 245.5t-245.5 100.5t-245.5 -100.5t-100.5 -245.5z" />
<glyph unicode="&#xa5;" horiz-adv-x="1009" d="M20 1458h117l371 -739l366 739h115l-334 -667h222v-78h-261l-55 -109v-108h316v-78h-316v-418h-110v418h-318v78h318v108l-56 109h-262v78h223z" />
<glyph unicode="&#xa6;" horiz-adv-x="671" d="M272 -152v717h105v-717h-105zM272 893v717h105v-717h-105z" />
<glyph unicode="&#xa7;" horiz-adv-x="1159" d="M199 506q0 122 63.5 213t161.5 135q-101 43 -152 111.5t-51 177.5q0 149 103 238t256 89q149 0 253 -82.5t111 -226.5h-108q-10 112 -74.5 162.5t-181.5 50.5q-118 0 -184 -58t-66 -173q0 -165 186 -219l170 -47q128 -36 201.5 -137t73.5 -234q0 -122 -64 -212.5 t-162 -135.5q98 -33 154.5 -111.5t56.5 -187.5q0 -150 -102.5 -246t-263.5 -96q-158 0 -261.5 84t-115.5 233h110q10 -109 79 -164t188 -55t187.5 63.5t68.5 180.5q0 81 -52.5 142.5t-140.5 86.5l-170 47q-129 36 -201.5 136t-72.5 235zM309 506q0 -132 72 -207 q78 -84 199 -84q120 0 198 84q72 78 72 207q0 66 -15.5 116t-56.5 91q-84 84 -198 84q-121 0 -199 -84q-40 -43 -56 -91t-16 -116z" />
<glyph unicode="&#xa8;" horiz-adv-x="1024" d="M240 1229v157h118v-157h-118zM666 1229v157h118v-157h-118z" />
<glyph unicode="&#xa9;" horiz-adv-x="1830" d="M174 729q0 151 58.5 288.5t157.5 236.5t236.5 157.5t288.5 58.5q202 0 372.5 -99t270 -269.5t99.5 -372.5t-99.5 -372.5t-270 -269.5t-372.5 -99q-151 0 -288.5 58.5t-236.5 157.5t-157.5 236.5t-58.5 288.5zM272 729q0 -130 51.5 -250t137.5 -208t205.5 -140.5 t248.5 -52.5t248.5 52.5t206 140.5t138 208t51.5 250t-51.5 250t-138 208t-206 140.5t-248.5 52.5t-248.5 -52.5t-205.5 -140.5t-137.5 -208t-51.5 -250zM561 729q0 70 13.5 132t42.5 116t71 93t102.5 61t133.5 22q84 0 143.5 -25t124.5 -84l-62 -61q-55 49 -99.5 67.5 t-106.5 18.5q-60 0 -107.5 -18.5t-77.5 -49.5t-50 -75t-28 -92.5t-8 -104.5t8 -104.5t28 -92t50 -74.5t77.5 -49t107.5 -18q63 0 107 17.5t99 66.5l62 -61q-62 -56 -123.5 -81.5t-144.5 -25.5q-91 0 -161.5 33.5t-114 92t-65.5 133.5t-22 163z" />
<glyph unicode="&#xaa;" horiz-adv-x="915" d="M121 885q0 108 71.5 167.5t200.5 59.5h248v86q0 95 -50.5 140.5t-164.5 45.5q-82 0 -129 -21.5t-84 -76.5l-66 55q52 69 116.5 96t162.5 27q151 0 227 -66.5t76 -191.5v-536h-88v73q-49 -47 -101 -65.5t-132 -18.5q-88 0 -140.5 16t-89.5 56q-57 57 -57 154zM209 887 q0 -76 48 -112t151 -36q63 0 108.5 11.5t83.5 46.5q41 41 41 147v96h-238q-194 0 -194 -153z" />
<glyph unicode="&#xab;" horiz-adv-x="1079" d="M86 543l401 401v-135l-266 -266l266 -267v-135zM510 543l401 401v-135l-266 -266l266 -267v-135z" />
<glyph unicode="&#xac;" d="M109 492v96h835v-369h-96v273h-739z" />
<glyph unicode="&#xad;" horiz-adv-x="872" d="M168 492v96h537v-96h-537z" />
<glyph unicode="&#xae;" horiz-adv-x="1830" d="M174 729q0 151 58.5 288.5t157.5 236.5t236.5 157.5t288.5 58.5q202 0 372.5 -99t270 -269.5t99.5 -372.5t-99.5 -372.5t-270 -269.5t-372.5 -99q-151 0 -288.5 58.5t-236.5 157.5t-157.5 236.5t-58.5 288.5zM270 729q0 -130 51.5 -251t138 -209t206 -140.5t249.5 -52.5 q174 0 323 89t236 239.5t87 324.5t-87 324.5t-236 239.5t-323 89q-130 0 -249.5 -52.5t-206 -140.5t-138 -209t-51.5 -251zM682 319v822h262q104 0 179 -69.5t75 -172.5q0 -89 -50 -147t-136 -82l207 -351h-107l-203 343h-135v-343h-92zM774 743h160q74 0 123 44.5t49 111.5 q0 68 -49.5 113t-122.5 45h-160v-314z" />
<glyph unicode="&#xaf;" horiz-adv-x="1024" d="M209 1249v94h606v-94h-606z" />
<glyph unicode="&#xb0;" horiz-adv-x="937" d="M147 1151q0 133 94.5 227.5t227.5 94.5t227.5 -94.5t94.5 -227.5t-94.5 -227.5t-227.5 -94.5t-227.5 94.5t-94.5 227.5zM240 1151q0 -102 65 -169t164 -67t164 67t65 169q0 99 -66.5 167t-164.5 68t-162.5 -66t-64.5 -169z" />
<glyph unicode="&#xb1;" d="M109 0v96h835v-96h-835zM109 553v96h370v371h96v-371h369v-96h-369v-373h-96v373h-370z" />
<glyph unicode="&#xb2;" horiz-adv-x="641" d="M90 584v82l344 436q47 62 47 127q0 73 -39 114t-110 41q-67 0 -109.5 -37t-42.5 -118h-90q0 105 66.5 171t175.5 66q110 0 175.5 -64t65.5 -173q0 -52 -15.5 -90.5t-53.5 -87.5l-305 -385h374v-82h-483z" />
<glyph unicode="&#xb3;" horiz-adv-x="641" d="M61 809h93q4 -77 51.5 -114.5t116.5 -37.5q71 0 118 46t47 122q0 79 -43 122.5t-129 43.5h-16v80h16q75 0 115.5 41.5t40.5 114.5t-44.5 115t-107.5 42q-68 0 -108.5 -38t-46.5 -105h-90q7 104 75 164.5t170 60.5q109 0 175.5 -64.5t66.5 -172.5q0 -141 -117 -193 q134 -50 134 -211q0 -118 -72.5 -184t-183.5 -66q-110 0 -183.5 60.5t-77.5 173.5z" />
<glyph unicode="&#xb4;" horiz-adv-x="1024" d="M416 1208l198 301h138l-217 -301h-119z" />
<glyph unicode="&#xb5;" horiz-adv-x="1138" d="M180 -471v1458h105v-612q0 -143 69.5 -219t202.5 -76t206 77t73 218v612h104v-987h-104v117q-111 -129 -291 -129q-160 0 -260 92v-551h-105z" />
<glyph unicode="&#xb6;" horiz-adv-x="1185" d="M92 1069q0 76 28.5 145.5t81.5 124t136.5 87t185.5 32.5h437v-1929h-105v1831h-252v-1831h-104v1151q-95 0 -174 34t-129 89.5t-77.5 124.5t-27.5 141z" />
<glyph unicode="&#xb7;" horiz-adv-x="540" d="M195 465v151h151v-151h-151z" />
<glyph unicode="&#xb8;" horiz-adv-x="1024" d="M371 -451l147 308h113l-131 -308h-129z" />
<glyph unicode="&#xb9;" horiz-adv-x="641" d="M147 1212v105l164 141h90v-874h-90v774z" />
<glyph unicode="&#xba;" horiz-adv-x="925" d="M147 1063q0 101 20.5 179t78.5 136q86 86 217 86t217 -86q58 -58 78 -135.5t20 -179.5t-20 -179.5t-78 -135.5q-86 -86 -217 -86t-217 86q-58 58 -78.5 136t-20.5 179zM236 1063q0 -56 3 -93.5t19 -85.5t45 -77q66 -66 160 -66t160 66q42 42 54.5 105.5t12.5 150.5 q0 56 -3 93.5t-19 85.5t-45 77q-65 65 -160 65t-160 -65q-42 -42 -54.5 -105.5t-12.5 -150.5z" />
<glyph unicode="&#xbb;" horiz-adv-x="1079" d="M168 141v135l266 267l-266 266v135l401 -401zM592 141v135l266 267l-266 266v135l401 -401z" />
<glyph unicode="&#xbc;" horiz-adv-x="1644" d="M147 1212v105l164 141h90v-874h-90v774zM436 0l680 1458h92l-680 -1458h-92zM1053 137v82l315 655h96l-313 -655h250v246h90v-246h106v-82h-106v-137h-90v137h-348z" />
<glyph unicode="&#xbd;" horiz-adv-x="1644" d="M147 1212v105l164 141h90v-874h-90v774zM436 0l680 1458h92l-680 -1458h-92zM1094 0v82l344 436q47 62 47 127q0 73 -39.5 114.5t-110.5 41.5q-66 0 -108.5 -37.5t-42.5 -118.5h-90q0 105 66 171.5t175 66.5q110 0 176 -64.5t66 -173.5q0 -52 -15.5 -90.5t-54.5 -87.5 l-305 -385h375v-82h-483z" />
<glyph unicode="&#xbe;" horiz-adv-x="1644" d="M61 809h93q4 -77 51.5 -114.5t116.5 -37.5q71 0 118 46t47 122q0 79 -43 122.5t-129 43.5h-16v80h16q75 0 115.5 41.5t40.5 114.5t-44.5 115t-107.5 42q-68 0 -108.5 -38t-46.5 -105h-90q7 104 75 164.5t170 60.5q109 0 175.5 -64.5t66.5 -172.5q0 -141 -117 -193 q134 -50 134 -211q0 -118 -72.5 -184t-183.5 -66q-110 0 -183.5 60.5t-77.5 173.5zM436 0l680 1458h92l-680 -1458h-92zM1053 137v82l315 655h96l-313 -655h250v246h90v-246h106v-82h-106v-137h-90v137h-348z" />
<glyph unicode="&#xbf;" horiz-adv-x="999" d="M102 -123q0 67 22.5 122t68.5 122l174 256q36 52 36 123v96h105v-92q0 -58 -13.5 -98.5t-45.5 -86.5l-173 -253q-37 -57 -53 -95.5t-16 -93.5q0 -115 74.5 -191.5t187.5 -76.5q117 0 189.5 78.5t72.5 189.5h105q0 -151 -103 -255.5t-264 -104.5q-157 0 -262 103t-105 257 zM387 850v137h137v-137h-137z" />
<glyph unicode="&#xc0;" horiz-adv-x="1232" d="M31 0l536 1458h99l536 -1458h-119l-127 354h-680l-126 -354h-119zM311 453h611l-306 858zM377 1898h137l199 -301h-119z" />
<glyph unicode="&#xc1;" horiz-adv-x="1232" d="M31 0l536 1458h99l536 -1458h-119l-127 354h-680l-126 -354h-119zM311 453h611l-306 858zM520 1597l199 301h137l-217 -301h-119z" />
<glyph unicode="&#xc2;" horiz-adv-x="1232" d="M31 0l536 1458h99l536 -1458h-119l-127 354h-680l-126 -354h-119zM309 1597l252 301h111l252 -301h-117l-191 224l-190 -224h-117zM311 453h611l-306 858z" />
<glyph unicode="&#xc3;" horiz-adv-x="1232" d="M31 0l536 1458h99l536 -1458h-119l-127 354h-680l-126 -354h-119zM301 1712q44 44 81 67t56.5 27t44.5 4q41 0 70.5 -11.5t71.5 -37.5q68 -43 114 -43q27 0 52.5 12.5t68.5 55.5l62 -60q-44 -44 -82 -67t-57 -27t-44 -4q-35 0 -64 10.5t-77 38.5q-73 43 -115 43 q-29 0 -53.5 -12t-67.5 -55zM311 453h611l-306 858z" />
<glyph unicode="&#xc4;" horiz-adv-x="1232" d="M31 0l536 1458h99l536 -1458h-119l-127 354h-680l-126 -354h-119zM311 453h611l-306 858zM344 1618v158h119v-158h-119zM770 1618v158h119v-158h-119z" />
<glyph unicode="&#xc5;" horiz-adv-x="1232" d="M31 0l536 1458h99l536 -1458h-119l-127 354h-680l-126 -354h-119zM311 453h611l-306 858zM383 1763q0 97 68 165.5t165 68.5t165.5 -68.5t68.5 -165.5t-68.5 -166t-165.5 -69t-165 69t-68 166zM467 1763q0 -61 43.5 -105t105.5 -44t106 44t44 105t-44 104.5t-106 43.5 t-105.5 -43.5t-43.5 -104.5z" />
<glyph unicode="&#xc6;" horiz-adv-x="1845" d="M20 0l773 1458h938v-98h-775v-582h660v-98h-660v-582h775v-98h-883v354h-522l-185 -354h-121zM373 453h475v907z" />
<glyph unicode="&#xc7;" horiz-adv-x="1318" d="M168 729q0 119 2.5 187t10 137t23.5 111.5t42 84t67 82.5q139 139 355 139q195 0 326.5 -114t168.5 -312h-112q-32 153 -134 240.5t-249 87.5q-165 0 -277 -112q-74 -74 -93 -178t-19 -353t19 -352.5t93 -177.5q113 -113 277 -113q148 0 251.5 88t135.5 240h108 q-37 -197 -169.5 -311.5t-325.5 -114.5q-216 0 -355 139q-41 41 -67 82.5t-42 84t-23.5 111.5t-10 137t-2.5 187zM489 -451l148 308h113l-132 -308h-129z" />
<glyph unicode="&#xc8;" horiz-adv-x="1224" d="M225 0v1458h885v-98h-774v-576h659v-98h-659v-588h774v-98h-885zM403 1898h138l198 -301h-118z" />
<glyph unicode="&#xc9;" horiz-adv-x="1224" d="M225 0v1458h885v-98h-774v-576h659v-98h-659v-588h774v-98h-885zM547 1597l198 301h138l-217 -301h-119z" />
<glyph unicode="&#xca;" horiz-adv-x="1224" d="M225 0v1458h885v-98h-774v-576h659v-98h-659v-588h774v-98h-885zM336 1597l252 301h110l252 -301h-116l-191 224l-190 -224h-117z" />
<glyph unicode="&#xcb;" horiz-adv-x="1224" d="M225 0v1458h885v-98h-774v-576h659v-98h-659v-588h774v-98h-885zM371 1618v158h118v-158h-118zM797 1618v158h118v-158h-118z" />
<glyph unicode="&#xcc;" horiz-adv-x="561" d="M14 1898h138l198 -301h-119zM225 0v1458h111v-1458h-111z" />
<glyph unicode="&#xcd;" horiz-adv-x="561" d="M211 1597l199 301h137l-217 -301h-119zM225 0v1458h111v-1458h-111z" />
<glyph unicode="&#xce;" horiz-adv-x="561" d="M-23 1597l252 301h111l252 -301h-117l-190 224l-191 -224h-117zM225 0v1458h111v-1458h-111z" />
<glyph unicode="&#xcf;" horiz-adv-x="561" d="M8 1618v158h119v-158h-119zM225 0v1458h111v-1458h-111zM434 1618v158h119v-158h-119z" />
<glyph unicode="&#xd0;" horiz-adv-x="1411" d="M82 692v86h166v680h489q232 0 365 -133q40 -40 68 -96.5t42 -108.5t21.5 -130t8.5 -127t1 -134t-1 -134t-8.5 -127t-21.5 -130t-42 -108.5t-68 -96.5q-133 -133 -365 -133h-489v692h-166zM358 98h353q205 0 313 113q31 33 53 81.5t32.5 92.5t16 113.5t6.5 111t1 119.5 t-1 119.5t-6.5 111t-16 113.5t-32.5 92.5t-53 81.5q-108 113 -313 113h-353v-582h365v-86h-365v-594z" />
<glyph unicode="&#xd1;" horiz-adv-x="1513" d="M225 0v1458h111l842 -1263v1263h110v-1458h-110l-842 1268v-1268h-111zM442 1712q44 44 81.5 67t57 27t44.5 4q41 0 70 -11t71 -38q68 -43 115 -43q27 0 52 12.5t68 55.5l62 -60q-44 -44 -81.5 -67t-57 -27t-43.5 -4q-35 0 -64.5 10.5t-77.5 38.5q-73 43 -114 43 q-29 0 -53.5 -12t-67.5 -55z" />
<glyph unicode="&#xd2;" horiz-adv-x="1335" d="M168 729q0 119 2.5 187t10 137t23.5 111.5t42 84t67 82.5q139 139 355 139q215 0 354 -139q41 -41 67 -82.5t42 -84t23.5 -111.5t10 -137t2.5 -187t-2.5 -187t-10 -137t-23.5 -111.5t-42 -84t-67 -82.5q-139 -139 -354 -139q-216 0 -355 139q-41 41 -67 82.5t-42 84 t-23.5 111.5t-10 137t-2.5 187zM279 729q0 -249 19 -352.5t93 -177.5q113 -113 277 -113q163 0 276 113q74 74 93.5 178t19.5 352t-19.5 352.5t-93.5 178.5q-112 112 -276 112q-165 0 -277 -112q-74 -74 -93 -178t-19 -353zM428 1898h137l199 -301h-119z" />
<glyph unicode="&#xd3;" horiz-adv-x="1335" d="M168 729q0 119 2.5 187t10 137t23.5 111.5t42 84t67 82.5q139 139 355 139q215 0 354 -139q41 -41 67 -82.5t42 -84t23.5 -111.5t10 -137t2.5 -187t-2.5 -187t-10 -137t-23.5 -111.5t-42 -84t-67 -82.5q-139 -139 -354 -139q-216 0 -355 139q-41 41 -67 82.5t-42 84 t-23.5 111.5t-10 137t-2.5 187zM279 729q0 -249 19 -352.5t93 -177.5q113 -113 277 -113q163 0 276 113q74 74 93.5 178t19.5 352t-19.5 352.5t-93.5 178.5q-112 112 -276 112q-165 0 -277 -112q-74 -74 -93 -178t-19 -353zM571 1597l199 301h137l-217 -301h-119z" />
<glyph unicode="&#xd4;" horiz-adv-x="1335" d="M168 729q0 119 2.5 187t10 137t23.5 111.5t42 84t67 82.5q139 139 355 139q215 0 354 -139q41 -41 67 -82.5t42 -84t23.5 -111.5t10 -137t2.5 -187t-2.5 -187t-10 -137t-23.5 -111.5t-42 -84t-67 -82.5q-139 -139 -354 -139q-216 0 -355 139q-41 41 -67 82.5t-42 84 t-23.5 111.5t-10 137t-2.5 187zM279 729q0 -249 19 -352.5t93 -177.5q113 -113 277 -113q163 0 276 113q74 74 93.5 178t19.5 352t-19.5 352.5t-93.5 178.5q-112 112 -276 112q-165 0 -277 -112q-74 -74 -93 -178t-19 -353zM360 1597l252 301h111l252 -301h-117l-190 224 l-191 -224h-117z" />
<glyph unicode="&#xd5;" horiz-adv-x="1335" d="M168 729q0 119 2.5 187t10 137t23.5 111.5t42 84t67 82.5q139 139 355 139q215 0 354 -139q41 -41 67 -82.5t42 -84t23.5 -111.5t10 -137t2.5 -187t-2.5 -187t-10 -137t-23.5 -111.5t-42 -84t-67 -82.5q-139 -139 -354 -139q-216 0 -355 139q-41 41 -67 82.5t-42 84 t-23.5 111.5t-10 137t-2.5 187zM279 729q0 -249 19 -352.5t93 -177.5q113 -113 277 -113q163 0 276 113q74 74 93.5 178t19.5 352t-19.5 352.5t-93.5 178.5q-112 112 -276 112q-165 0 -277 -112q-74 -74 -93 -178t-19 -353zM352 1712q44 44 81.5 67t57 27t44.5 4 q41 0 70 -11t71 -38q68 -43 115 -43q27 0 52 12.5t68 55.5l62 -60q-44 -44 -81.5 -67t-57 -27t-43.5 -4q-35 0 -64.5 10.5t-77.5 38.5q-73 43 -114 43q-29 0 -53.5 -12t-67.5 -55z" />
<glyph unicode="&#xd6;" horiz-adv-x="1335" d="M168 729q0 119 2.5 187t10 137t23.5 111.5t42 84t67 82.5q139 139 355 139q215 0 354 -139q41 -41 67 -82.5t42 -84t23.5 -111.5t10 -137t2.5 -187t-2.5 -187t-10 -137t-23.5 -111.5t-42 -84t-67 -82.5q-139 -139 -354 -139q-216 0 -355 139q-41 41 -67 82.5t-42 84 t-23.5 111.5t-10 137t-2.5 187zM279 729q0 -249 19 -352.5t93 -177.5q113 -113 277 -113q163 0 276 113q74 74 93.5 178t19.5 352t-19.5 352.5t-93.5 178.5q-112 112 -276 112q-165 0 -277 -112q-74 -74 -93 -178t-19 -353zM395 1618v158h119v-158h-119zM821 1618v158h119 v-158h-119z" />
<glyph unicode="&#xd7;" d="M145 223l318 318l-318 317l64 64l317 -318l318 318l63 -64l-317 -317l317 -318l-63 -63l-318 317l-317 -317z" />
<glyph unicode="&#xd8;" horiz-adv-x="1335" d="M168 729q0 119 2.5 187t10 137t23.5 111.5t42 84t67 82.5q139 139 355 139q149 0 266 -71l72 149h108l-100 -209q37 -36 62 -69t42 -75.5t26.5 -80.5t15 -103t6.5 -123t1 -159q0 -119 -2.5 -187t-10 -137t-23.5 -111.5t-42 -84t-67 -82.5q-139 -139 -354 -139 q-147 0 -267 71l-71 -149h-109l101 209q-44 43 -72 85.5t-45 86t-25 113.5t-10 137t-2 188zM279 729q0 -236 15.5 -337.5t76.5 -170.5l518 1084q-98 67 -221 67q-165 0 -277 -112q-74 -74 -93 -178t-19 -353zM446 154q100 -68 222 -68q163 0 276 113q74 74 93.5 178 t19.5 352q0 232 -16.5 334.5t-75.5 173.5z" />
<glyph unicode="&#xd9;" horiz-adv-x="1409" d="M205 473v985h110v-971q0 -182 106.5 -291.5t283.5 -109.5t283 109.5t106 291.5v971h110v-985q0 -214 -139.5 -349.5t-359.5 -135.5t-360 135.5t-140 349.5zM465 1898h137l199 -301h-119z" />
<glyph unicode="&#xda;" horiz-adv-x="1409" d="M205 473v985h110v-971q0 -182 106.5 -291.5t283.5 -109.5t283 109.5t106 291.5v971h110v-985q0 -214 -139.5 -349.5t-359.5 -135.5t-360 135.5t-140 349.5zM608 1597l199 301h137l-217 -301h-119z" />
<glyph unicode="&#xdb;" horiz-adv-x="1409" d="M205 473v985h110v-971q0 -182 106.5 -291.5t283.5 -109.5t283 109.5t106 291.5v971h110v-985q0 -214 -139.5 -349.5t-359.5 -135.5t-360 135.5t-140 349.5zM397 1597l252 301h111l252 -301h-117l-190 224l-191 -224h-117z" />
<glyph unicode="&#xdc;" horiz-adv-x="1409" d="M205 473v985h110v-971q0 -182 106.5 -291.5t283.5 -109.5t283 109.5t106 291.5v971h110v-985q0 -214 -139.5 -349.5t-359.5 -135.5t-360 135.5t-140 349.5zM432 1618v158h119v-158h-119zM858 1618v158h119v-158h-119z" />
<glyph unicode="&#xdd;" horiz-adv-x="1011" d="M20 1458h119l371 -737l362 737h119l-430 -854v-604h-110v604zM410 1597l198 301h137l-217 -301h-118z" />
<glyph unicode="&#xde;" horiz-adv-x="1323" d="M225 0v1458h111v-303h424q194 0 317 -112t123 -308q0 -195 -123 -307.5t-317 -112.5h-424v-315h-111zM336 414h412q158 0 250 81t92 240t-92 240.5t-250 81.5h-412v-643z" />
<glyph unicode="&#xdf;" horiz-adv-x="1126" d="M199 0v1073q0 186 103.5 291.5t289.5 105.5q164 0 269.5 -84t105.5 -247q0 -165 -129 -250q76 -38 103.5 -95t27.5 -159v-361q0 -127 -80 -204q-42 -38 -86 -54t-109 -16h-110v92h90q47 0 74.5 10t58.5 35q57 45 57 150v364q0 96 -47 140q-47 47 -133 47h-100v92h80 q92 0 146 57.5t54 151.5q0 109 -71 174t-213 65t-209.5 -81.5t-67.5 -223.5v-1073h-104z" />
<glyph unicode="&#xe0;" horiz-adv-x="1073" d="M115 270q0 135 91 210t253 75h319v111q0 122 -65 181.5t-213 59.5q-103 0 -164 -28.5t-109 -96.5l-75 66q61 85 141.5 118t206.5 33q383 0 383 -323v-676h-105v98q-62 -62 -128.5 -86t-172.5 -24q-111 0 -177.5 20.5t-113.5 69.5q-71 71 -71 192zM219 272 q0 -99 62 -145.5t196 -46.5q81 0 139 15t107 61q55 52 55 188v127h-307q-252 0 -252 -199zM270 1509h138l198 -301h-119z" />
<glyph unicode="&#xe1;" horiz-adv-x="1073" d="M115 270q0 135 91 210t253 75h319v111q0 122 -65 181.5t-213 59.5q-103 0 -164 -28.5t-109 -96.5l-75 66q61 85 141.5 118t206.5 33q383 0 383 -323v-676h-105v98q-62 -62 -128.5 -86t-172.5 -24q-111 0 -177.5 20.5t-113.5 69.5q-71 71 -71 192zM219 272 q0 -99 62 -145.5t196 -46.5q81 0 139 15t107 61q55 52 55 188v127h-307q-252 0 -252 -199zM414 1208l198 301h138l-218 -301h-118z" />
<glyph unicode="&#xe2;" horiz-adv-x="1073" d="M115 270q0 135 91 210t253 75h319v111q0 122 -65 181.5t-213 59.5q-103 0 -164 -28.5t-109 -96.5l-75 66q61 85 141.5 118t206.5 33q383 0 383 -323v-676h-105v98q-62 -62 -128.5 -86t-172.5 -24q-111 0 -177.5 20.5t-113.5 69.5q-71 71 -71 192zM203 1208l252 301h110 l252 -301h-117l-190 224l-191 -224h-116zM219 272q0 -99 62 -145.5t196 -46.5q81 0 139 15t107 61q55 52 55 188v127h-307q-252 0 -252 -199z" />
<glyph unicode="&#xe3;" horiz-adv-x="1073" d="M115 270q0 135 91 210t253 75h319v111q0 122 -65 181.5t-213 59.5q-103 0 -164 -28.5t-109 -96.5l-75 66q61 85 141.5 118t206.5 33q383 0 383 -323v-676h-105v98q-62 -62 -128.5 -86t-172.5 -24q-111 0 -177.5 20.5t-113.5 69.5q-71 71 -71 192zM195 1323q44 44 81 67 t56.5 27t44.5 4q41 0 70 -11t71 -38q68 -43 115 -43q27 0 52.5 12.5t68.5 55.5l61 -60q-44 -44 -81.5 -67t-57 -27t-43.5 -4q-35 0 -64 10.5t-77 38.5q-73 43 -115 43q-29 0 -53.5 -12t-67.5 -55zM219 272q0 -99 62 -145.5t196 -46.5q81 0 139 15t107 61q55 52 55 188v127 h-307q-252 0 -252 -199z" />
<glyph unicode="&#xe4;" horiz-adv-x="1073" d="M115 270q0 135 91 210t253 75h319v111q0 122 -65 181.5t-213 59.5q-103 0 -164 -28.5t-109 -96.5l-75 66q61 85 141.5 118t206.5 33q383 0 383 -323v-676h-105v98q-62 -62 -128.5 -86t-172.5 -24q-111 0 -177.5 20.5t-113.5 69.5q-71 71 -71 192zM219 272 q0 -99 62 -145.5t196 -46.5q81 0 139 15t107 61q55 52 55 188v127h-307q-252 0 -252 -199zM238 1229v157h118v-157h-118zM664 1229v157h118v-157h-118z" />
<glyph unicode="&#xe5;" horiz-adv-x="1073" d="M115 270q0 135 91 210t253 75h319v111q0 122 -65 181.5t-213 59.5q-103 0 -164 -28.5t-109 -96.5l-75 66q61 85 141.5 118t206.5 33q383 0 383 -323v-676h-105v98q-62 -62 -128.5 -86t-172.5 -24q-111 0 -177.5 20.5t-113.5 69.5q-71 71 -71 192zM219 272 q0 -99 62 -145.5t196 -46.5q81 0 139 15t107 61q55 52 55 188v127h-307q-252 0 -252 -199zM276 1386q0 97 68.5 165.5t165.5 68.5t165 -68.5t68 -165.5t-68 -166t-165 -69t-165.5 69t-68.5 166zM360 1386q0 -61 44 -105t106 -44t105.5 43.5t43.5 105.5q0 61 -43.5 104.5 t-105.5 43.5t-106 -43.5t-44 -104.5z" />
<glyph unicode="&#xe6;" horiz-adv-x="1708" d="M115 270q0 135 91 210t253 75h319v111q0 122 -65 181.5t-213 59.5q-103 0 -164 -28.5t-109 -96.5l-75 66q61 85 141.5 118t206.5 33q278 0 354 -174q103 174 320 174q186 0 290.5 -127t104.5 -354v-47h-686q0 -190 81.5 -289.5t239.5 -99.5q86 0 147.5 27.5t125.5 91.5 l77 -62q-79 -79 -159.5 -115t-198.5 -36q-250 0 -352 184q-61 -100 -145.5 -142t-221.5 -42q-111 0 -177.5 20.5t-113.5 69.5q-71 71 -71 192zM219 272q0 -99 62 -145.5t196 -46.5q81 0 139 15t107 61q55 52 55 188v127h-307q-252 0 -252 -199zM883 555h581q-4 60 -6 80.5 t-8.5 48.5t-19.5 57q-32 78 -100.5 122t-155.5 44q-88 0 -157 -44t-99 -122q-18 -46 -24 -79t-11 -107z" />
<glyph unicode="&#xe7;" horiz-adv-x="1009" d="M141 494q0 235 116 370t318 135q104 0 177 -32.5t149 -118.5l-72 -66q-63 70 -119 97.5t-135 27.5q-174 0 -262 -131q-37 -54 -52 -118t-15 -164t15 -164.5t52 -118.5q88 -131 262 -131q78 0 134.5 28t119.5 97l72 -66q-76 -86 -149 -118.5t-177 -32.5q-202 0 -318 135.5 t-116 370.5zM371 -451l147 308h113l-131 -308h-129z" />
<glyph unicode="&#xe8;" horiz-adv-x="1071" d="M141 494q0 239 105 372t291 133t290.5 -127t104.5 -354v-47h-686q0 -190 81.5 -289.5t239.5 -99.5q86 0 147.5 27.5t125.5 91.5l78 -62q-79 -79 -159 -115t-198 -36q-204 0 -312 129.5t-108 376.5zM246 555h581q-4 60 -6 80.5t-8.5 48.5t-19.5 57q-32 78 -100.5 122 t-155.5 44q-85 0 -152.5 -44.5t-103.5 -121.5q-19 -41 -24.5 -74t-10.5 -112zM301 1509h137l199 -301h-119z" />
<glyph unicode="&#xe9;" horiz-adv-x="1071" d="M141 494q0 239 105 372t291 133t290.5 -127t104.5 -354v-47h-686q0 -190 81.5 -289.5t239.5 -99.5q86 0 147.5 27.5t125.5 91.5l78 -62q-79 -79 -159 -115t-198 -36q-204 0 -312 129.5t-108 376.5zM246 555h581q-4 60 -6 80.5t-8.5 48.5t-19.5 57q-32 78 -100.5 122 t-155.5 44q-85 0 -152.5 -44.5t-103.5 -121.5q-19 -41 -24.5 -74t-10.5 -112zM444 1208l199 301h137l-217 -301h-119z" />
<glyph unicode="&#xea;" horiz-adv-x="1071" d="M141 494q0 239 105 372t291 133t290.5 -127t104.5 -354v-47h-686q0 -190 81.5 -289.5t239.5 -99.5q86 0 147.5 27.5t125.5 91.5l78 -62q-79 -79 -159 -115t-198 -36q-204 0 -312 129.5t-108 376.5zM233 1208l252 301h111l252 -301h-117l-190 224l-191 -224h-117zM246 555 h581q-4 60 -6 80.5t-8.5 48.5t-19.5 57q-32 78 -100.5 122t-155.5 44q-85 0 -152.5 -44.5t-103.5 -121.5q-19 -41 -24.5 -74t-10.5 -112z" />
<glyph unicode="&#xeb;" horiz-adv-x="1071" d="M141 494q0 239 105 372t291 133t290.5 -127t104.5 -354v-47h-686q0 -190 81.5 -289.5t239.5 -99.5q86 0 147.5 27.5t125.5 91.5l78 -62q-79 -79 -159 -115t-198 -36q-204 0 -312 129.5t-108 376.5zM246 555h581q-4 60 -6 80.5t-8.5 48.5t-19.5 57q-32 78 -100.5 122 t-155.5 44q-85 0 -152.5 -44.5t-103.5 -121.5q-19 -41 -24.5 -74t-10.5 -112zM268 1229v157h119v-157h-119zM694 1229v157h119v-157h-119z" />
<glyph unicode="&#xec;" horiz-adv-x="501" d="M-33 1509h137l199 -301h-119zM199 0v987h104v-987h-104z" />
<glyph unicode="&#xed;" horiz-adv-x="501" d="M199 0v987h104v-987h-104zM199 1208l198 301h138l-218 -301h-118z" />
<glyph unicode="&#xee;" horiz-adv-x="501" d="M-57 1208l252 301h110l252 -301h-117l-190 224l-191 -224h-116zM199 0v987h104v-987h-104z" />
<glyph unicode="&#xef;" horiz-adv-x="501" d="M-23 1229v157h119v-157h-119zM199 0v987h104v-987h-104zM403 1229v157h119v-157h-119z" />
<glyph unicode="&#xf0;" horiz-adv-x="1077" d="M141 494q0 274 123 397q108 108 275 108q97 0 153 -34l-137 231h-240v78h195l-109 184h109l106 -184h162v-78h-116l147 -252q80 -140 103.5 -227t23.5 -223q0 -275 -123 -398q-108 -108 -274 -108q-167 0 -275 108q-123 123 -123 398zM246 494q0 -112 16.5 -193.5 t71.5 -136.5q84 -84 205 -84q120 0 204 84q55 55 71.5 136.5t16.5 193.5t-16.5 193t-71.5 136q-84 84 -204 84q-121 0 -205 -84q-55 -55 -71.5 -136t-16.5 -193z" />
<glyph unicode="&#xf1;" horiz-adv-x="1144" d="M199 0v987h104v-117q111 129 291 129q164 0 262 -94q102 -99 102 -274v-631h-104v612q0 143 -69.5 219t-202.5 76t-206 -77t-73 -218v-612h-104zM266 1323q44 44 81.5 67t57 27t44.5 4q41 0 70 -11t71 -38q68 -43 115 -43q27 0 52 12.5t68 55.5l62 -60q-44 -44 -81.5 -67 t-57 -27t-43.5 -4q-35 0 -64.5 10.5t-77.5 38.5q-73 43 -114 43q-29 0 -53.5 -12t-67.5 -55z" />
<glyph unicode="&#xf2;" horiz-adv-x="1077" d="M141 494q0 274 123 397q108 108 275 108q166 0 274 -108q123 -123 123 -397q0 -275 -123 -398q-108 -108 -274 -108q-167 0 -275 108q-123 123 -123 398zM246 494q0 -112 16.5 -193.5t71.5 -136.5q84 -84 205 -84q120 0 204 84q55 55 71.5 136.5t16.5 193.5t-16.5 193 t-71.5 136q-84 84 -204 84q-121 0 -205 -84q-55 -55 -71.5 -136t-16.5 -193zM309 1509h137l199 -301h-119z" />
<glyph unicode="&#xf3;" horiz-adv-x="1077" d="M141 494q0 274 123 397q108 108 275 108q166 0 274 -108q123 -123 123 -397q0 -275 -123 -398q-108 -108 -274 -108q-167 0 -275 108q-123 123 -123 398zM246 494q0 -112 16.5 -193.5t71.5 -136.5q84 -84 205 -84q120 0 204 84q55 55 71.5 136.5t16.5 193.5t-16.5 193 t-71.5 136q-84 84 -204 84q-121 0 -205 -84q-55 -55 -71.5 -136t-16.5 -193zM442 1208l199 301h137l-217 -301h-119z" />
<glyph unicode="&#xf4;" horiz-adv-x="1077" d="M141 494q0 274 123 397q108 108 275 108q166 0 274 -108q123 -123 123 -397q0 -275 -123 -398q-108 -108 -274 -108q-167 0 -275 108q-123 123 -123 398zM231 1208l252 301h111l252 -301h-117l-190 224l-191 -224h-117zM246 494q0 -112 16.5 -193.5t71.5 -136.5 q84 -84 205 -84q120 0 204 84q55 55 71.5 136.5t16.5 193.5t-16.5 193t-71.5 136q-84 84 -204 84q-121 0 -205 -84q-55 -55 -71.5 -136t-16.5 -193z" />
<glyph unicode="&#xf5;" horiz-adv-x="1077" d="M141 494q0 274 123 397q108 108 275 108q166 0 274 -108q123 -123 123 -397q0 -275 -123 -398q-108 -108 -274 -108q-167 0 -275 108q-123 123 -123 398zM223 1323q44 44 81.5 67t57 27t44.5 4q41 0 70 -11t71 -38q68 -43 115 -43q27 0 52 12.5t68 55.5l62 -60 q-44 -44 -81.5 -67t-57 -27t-43.5 -4q-35 0 -64.5 10.5t-77.5 38.5q-73 43 -114 43q-29 0 -53.5 -12t-67.5 -55zM246 494q0 -112 16.5 -193.5t71.5 -136.5q84 -84 205 -84q120 0 204 84q55 55 71.5 136.5t16.5 193.5t-16.5 193t-71.5 136q-84 84 -204 84q-121 0 -205 -84 q-55 -55 -71.5 -136t-16.5 -193z" />
<glyph unicode="&#xf6;" horiz-adv-x="1077" d="M141 494q0 274 123 397q108 108 275 108q166 0 274 -108q123 -123 123 -397q0 -275 -123 -398q-108 -108 -274 -108q-167 0 -275 108q-123 123 -123 398zM246 494q0 -112 16.5 -193.5t71.5 -136.5q84 -84 205 -84q120 0 204 84q55 55 71.5 136.5t16.5 193.5t-16.5 193 t-71.5 136q-84 84 -204 84q-121 0 -205 -84q-55 -55 -71.5 -136t-16.5 -193zM266 1229v157h119v-157h-119zM692 1229v157h119v-157h-119z" />
<glyph unicode="&#xf7;" d="M109 492v96h835v-96h-835zM455 123v143h143v-143h-143zM455 813v143h143v-143h-143z" />
<glyph unicode="&#xf8;" horiz-adv-x="1077" d="M141 494q0 274 123 397q108 108 275 108q124 0 215 -61l82 139h98l-115 -192q117 -124 117 -391q0 -275 -123 -398q-108 -108 -274 -108q-120 0 -215 59l-82 -137h-99l115 192q-117 124 -117 392zM246 494q0 -68 2.5 -109.5t18 -98.5t44.5 -96l394 666q-71 51 -166 51 q-121 0 -205 -84q-55 -55 -71.5 -136t-16.5 -193zM373 131q71 -51 166 -51q120 0 204 84q55 55 71.5 136.5t16.5 193.5q0 68 -2.5 109.5t-18 98t-44.5 95.5z" />
<glyph unicode="&#xf9;" horiz-adv-x="1144" d="M186 356v631h105v-612q0 -143 69.5 -219t202.5 -76t206 77t73 218v612h104v-987h-104v117q-111 -129 -291 -129q-164 0 -262 94q-103 100 -103 274zM326 1509h137l199 -301h-119z" />
<glyph unicode="&#xfa;" horiz-adv-x="1144" d="M186 356v631h105v-612q0 -143 69.5 -219t202.5 -76t206 77t73 218v612h104v-987h-104v117q-111 -129 -291 -129q-164 0 -262 94q-103 100 -103 274zM469 1208l199 301h137l-217 -301h-119z" />
<glyph unicode="&#xfb;" horiz-adv-x="1144" d="M186 356v631h105v-612q0 -143 69.5 -219t202.5 -76t206 77t73 218v612h104v-987h-104v117q-111 -129 -291 -129q-164 0 -262 94q-103 100 -103 274zM258 1208l252 301h111l251 -301h-116l-191 224l-190 -224h-117z" />
<glyph unicode="&#xfc;" horiz-adv-x="1144" d="M186 356v631h105v-612q0 -143 69.5 -219t202.5 -76t206 77t73 218v612h104v-987h-104v117q-111 -129 -291 -129q-164 0 -262 94q-103 100 -103 274zM293 1229v157h119v-157h-119zM719 1229v157h119v-157h-119z" />
<glyph unicode="&#xfd;" horiz-adv-x="880" d="M29 987h114l297 -864l297 864h115l-459 -1255q-28 -82 -67 -115q-66 -63 -187 -63h-49v92h39q56 0 89.5 14t52.5 41t38 80l80 219zM344 1208l199 301h137l-217 -301h-119z" />
<glyph unicode="&#xfe;" horiz-adv-x="1105" d="M199 -471v1929h104v-598q62 81 130.5 110t162.5 29q76 0 139.5 -23.5t102.5 -62.5q127 -127 127 -419q0 -293 -127 -420q-39 -39 -102.5 -62.5t-139.5 -23.5q-94 0 -162.5 29t-130.5 110v-598h-104zM303 494q0 -69 5.5 -123t23 -110.5t47.5 -94.5t81.5 -62t121.5 -24 t121.5 24t81 61.5t47 95t23 111t5.5 122.5t-5.5 122.5t-23 110.5t-47 94.5t-81 61.5t-121.5 24t-121.5 -24t-81.5 -61.5t-47.5 -94.5t-23 -110.5t-5.5 -122.5z" />
<glyph unicode="&#xff;" horiz-adv-x="880" d="M29 987h114l297 -864l297 864h115l-459 -1255q-28 -82 -67 -115q-66 -63 -187 -63h-49v92h39q56 0 89.5 14t52.5 41t38 80l80 219zM168 1229v157h119v-157h-119zM594 1229v157h119v-157h-119z" />
<glyph unicode="&#x152;" horiz-adv-x="2041" d="M168 729q0 119 2.5 187t10 137t23.5 111.5t42 84t67 82.5q139 139 355 139q240 0 389 -186v174h864v-96h-756q0 -98 1 -292t1 -292h641v-86h-641q0 -100 -1 -298.5t-1 -297.5h762v-96h-870v174q-72 -91 -173.5 -138.5t-215.5 -47.5q-216 0 -355 139q-41 41 -67 82.5 t-42 84t-23.5 111.5t-10 137t-2.5 187zM279 729q0 -249 19 -352.5t93 -177.5q113 -113 277 -113q163 0 276 113q74 74 93.5 178t19.5 352t-19.5 352.5t-93.5 178.5q-112 112 -276 112q-165 0 -277 -112q-74 -74 -93 -178t-19 -353z" />
<glyph unicode="&#x153;" horiz-adv-x="1761" d="M141 494q0 274 123 397q108 108 275 108q118 0 209.5 -56t138.5 -159q47 104 134.5 159.5t205.5 55.5q186 0 290.5 -127t104.5 -354v-47h-686q0 -190 81.5 -289.5t239.5 -99.5q86 0 147.5 27.5t125.5 91.5l78 -62q-79 -79 -159 -115t-198 -36q-262 0 -364 215 q-47 -103 -139 -159t-209 -56q-167 0 -275 108q-123 123 -123 398zM246 494q0 -112 16.5 -193.5t71.5 -136.5q84 -84 205 -84q120 0 204 84q55 55 71.5 136.5t16.5 193.5t-16.5 193t-71.5 136q-84 84 -204 84q-121 0 -205 -84q-55 -55 -71.5 -136t-16.5 -193zM936 555h582 q-5 79 -10.5 112t-24.5 74q-32 78 -100.5 122t-155.5 44t-157 -45t-99 -121q-16 -44 -23.5 -81t-11.5 -105z" />
<glyph unicode="&#x178;" horiz-adv-x="1011" d="M20 1458h119l371 -737l362 737h119l-430 -854v-604h-110v604zM233 1618v158h119v-158h-119zM659 1618v158h119v-158h-119z" />
<glyph unicode="&#x2c6;" horiz-adv-x="1024" d="M205 1208l252 301h110l252 -301h-117l-190 224l-190 -224h-117z" />
<glyph unicode="&#x2dc;" horiz-adv-x="1024" d="M197 1323q44 44 81 67t56.5 27t44.5 4q41 0 70 -11t71 -38q68 -43 115 -43q27 0 52.5 12.5t68.5 55.5l61 -60q-44 -44 -81.5 -67t-57 -27t-43.5 -4q-36 0 -65 11t-76 38q-73 43 -115 43q-29 0 -53.5 -12t-67.5 -55z" />
<glyph unicode="&#x2000;" horiz-adv-x="998" />
<glyph unicode="&#x2001;" horiz-adv-x="1997" />
<glyph unicode="&#x2002;" horiz-adv-x="998" />
<glyph unicode="&#x2003;" horiz-adv-x="1997" />
<glyph unicode="&#x2004;" horiz-adv-x="665" />
<glyph unicode="&#x2005;" horiz-adv-x="499" />
<glyph unicode="&#x2006;" horiz-adv-x="332" />
<glyph unicode="&#x2007;" horiz-adv-x="332" />
<glyph unicode="&#x2008;" horiz-adv-x="249" />
<glyph unicode="&#x2009;" horiz-adv-x="399" />
<glyph unicode="&#x200a;" horiz-adv-x="110" />
<glyph unicode="&#x2010;" horiz-adv-x="872" d="M168 492v96h537v-96h-537z" />
<glyph unicode="&#x2011;" horiz-adv-x="872" d="M168 492v96h537v-96h-537z" />
<glyph unicode="&#x2012;" horiz-adv-x="872" d="M168 492v96h537v-96h-537z" />
<glyph unicode="&#x2013;" d="M109 492v96h835v-96h-835z" />
<glyph unicode="&#x2014;" horiz-adv-x="1787" d="M168 492v96h1452v-96h-1452z" />
<glyph unicode="&#x2018;" horiz-adv-x="532" d="M195 1315v143l143 144v-287h-143z" />
<glyph unicode="&#x2019;" horiz-adv-x="532" d="M195 1171v287h143v-143z" />
<glyph unicode="&#x201a;" horiz-adv-x="532" d="M195 -143v286h143v-143z" />
<glyph unicode="&#x201c;" horiz-adv-x="851" d="M195 1315v143l143 144v-287h-143zM514 1315v143l143 144v-287h-143z" />
<glyph unicode="&#x201d;" horiz-adv-x="851" d="M195 1171v287h143v-143zM514 1171v287h143v-143z" />
<glyph unicode="&#x201e;" horiz-adv-x="851" d="M195 -143v286h143v-143zM514 -143v286h143v-143z" />
<glyph unicode="&#x2022;" horiz-adv-x="1118" d="M225 684q0 138 98 236t236 98t236 -98t98 -236t-98 -236t-236 -98t-236 98t-98 236z" />
<glyph unicode="&#x2026;" horiz-adv-x="1482" d="M195 0v152h151v-152h-151zM666 0v152h151v-152h-151zM1137 0v152h151v-152h-151z" />
<glyph unicode="&#x202f;" horiz-adv-x="399" />
<glyph unicode="&#x2039;" horiz-adv-x="655" d="M86 543l401 401v-135l-266 -266l266 -267v-135z" />
<glyph unicode="&#x203a;" horiz-adv-x="655" d="M168 141v135l266 267l-266 266v135l401 -401z" />
<glyph unicode="&#x205f;" horiz-adv-x="499" />
<glyph unicode="&#x20ac;" horiz-adv-x="1384" d="M102 549v78h131v217h-131v78h134q5 158 34.5 244t108.5 165q139 139 354 139q195 0 327 -114t169 -312h-113q-32 153 -134 240.5t-249 87.5q-164 0 -276 -112q-58 -58 -81.5 -132t-29.5 -206h500v-78h-502v-217h502v-78h-500q5 -139 28 -215.5t83 -134.5 q113 -113 276 -113q148 0 251.5 88t135.5 240h109q-37 -197 -170 -311.5t-326 -114.5q-215 0 -354 139q-81 81 -109.5 168t-33.5 254h-134z" />
<glyph unicode="&#x2122;" horiz-adv-x="1656" d="M66 1374v84h589v-84h-249v-790h-91v790h-249zM817 584v874h90l273 -553l272 553h90v-874h-90v671l-225 -446h-94l-226 446v-671h-90z" />
<glyph unicode="&#x25fc;" horiz-adv-x="983" d="M0 0v983h983v-983h-983z" />
<glyph unicode="&#xfb01;" horiz-adv-x="1120" d="M94 909v78h135v213q0 116 62 187t176 71h90v-92h-72q-151 0 -151 -164v-215h223v-78h-223v-909h-105v909h-135zM805 1329v129h129v-129h-129zM817 0v987h105v-987h-105z" />
<glyph unicode="&#xfb02;" horiz-adv-x="1200" d="M94 909v78h135v213q0 116 62 187t176 71h90v-92h-72q-151 0 -151 -164v-215h223v-78h-223v-909h-105v909h-135zM807 256v1202h104v-1200q0 -88 33.5 -127t118.5 -39h72v-92h-91q-118 0 -177.5 67.5t-59.5 188.5z" />
</font>
</defs>
</svg>
